<?xml version="1.0" encoding="iso-8859-1"?>
<!-- Uploaded to: SVG Repo, www.svgrepo.com, Generator: SVG Repo Mixer Tools -->
<svg fill="url(#icon-grad)" version="1.1" id="Layer_1" xmlns="http://www.w3.org/2000/svg" xmlns:xlink="http://www.w3.org/1999/xlink" 
	 viewBox="0 0 512 512" xml:space="preserve">
<defs>
  <linearGradient id="icon-grad" x1="0%" y1="0%" x2="100%" y2="100%">
    <stop offset="0%" stop-color="#38bdf8" />
    <stop offset="100%" stop-color="#1e3a8a" />
  </linearGradient>
</defs>

<g>
	<g>
		<rect x="247.945" y="-152.661" transform="matrix(0.0017 -1 1 0.0017 166.7992 344.1142)" width="15.61" height="482.353"/>
	</g>
</g>
<g>
	<g>
		<polygon points="58.276,134.413 58.276,320.689 73.886,320.689 73.886,150.022 88.455,150.022 88.455,134.413 		"/>
	</g>
</g>
<g>
	<g>
		<polygon points="110.309,134.413 110.309,320.689 125.919,320.689 125.919,150.022 140.488,150.022 140.488,134.413 		"/>
	</g>
</g>
<g>
	<g>
		<polygon points="163.382,134.413 163.382,320.689 178.992,320.689 178.992,150.022 192.52,150.022 192.52,134.413 		"/>
	</g>
</g>
<g>
	<g>
		<polygon points="215.415,134.413 215.415,320.689 231.024,320.689 231.024,150.022 244.553,150.022 244.553,134.413 		"/>
	</g>
</g>
<g>
	<g>
		<polygon points="266.406,134.413 266.406,320.689 282.016,320.689 282.016,150.022 296.585,150.022 296.585,134.413 		"/>
	</g>
</g>
<g>
	<g>
		<polygon points="318.439,134.413 318.439,320.689 334.049,320.689 334.049,150.022 348.618,150.022 348.618,134.413 		"/>
	</g>
</g>
<g>
	<g>
		<polygon points="371.512,134.413 371.512,320.689 387.122,320.689 387.122,150.022 399.61,150.022 399.61,134.413 		"/>
	</g>
</g>
<g>
	<g>
		<polygon points="421.463,134.413 421.463,320.689 437.073,320.689 437.073,150.022 452.683,150.022 452.683,134.413 		"/>
	</g>
</g>
<g>
	<g>
		<path d="M497.31,335.258V104.49H14.3v230.768H0v59.317h51.404c0.193,20.503,16.924,37.124,37.472,37.124
			c12.068,0,22.816-5.739,29.676-14.626c6.86,8.886,17.608,14.626,29.676,14.626c20.548,0,37.279-16.621,37.472-37.124h140.208
			c0.193,20.503,16.925,37.124,37.473,37.124c12.068,0,22.816-5.739,29.676-14.626c6.86,8.886,17.608,14.626,29.677,14.626
			c20.547,0,37.279-16.621,37.472-37.124H512v-59.317H497.31z M29.909,120.099H481.7v215.159H29.909V120.099z M88.876,416.09
			c-12.06,0-21.871-9.811-21.871-21.871c0-12.059,9.811-21.871,21.871-21.871c12.06,0,21.871,9.811,21.871,21.871
			C110.747,406.278,100.936,416.09,88.876,416.09z M148.228,416.09c-12.059,0-21.871-9.811-21.871-21.871
			c0-12.059,9.811-21.871,21.871-21.871c12.06,0,21.871,9.811,21.871,21.871C170.1,406.278,160.288,416.09,148.228,416.09z
			 M363.382,416.09c-12.06,0-21.872-9.811-21.872-21.871c0-12.059,9.812-21.871,21.872-21.871s21.871,9.811,21.871,21.871
			C385.252,406.278,375.441,416.09,363.382,416.09z M422.734,416.09c-12.06,0-21.872-9.811-21.872-21.871
			c0-12.059,9.812-21.871,21.872-21.871s21.871,9.811,21.871,21.871C444.604,406.278,434.794,416.09,422.734,416.09z
			 M496.39,357.112h-13.528v15.61h13.528v6.244h-39.432c-5.855-13.084-18.988-22.227-34.224-22.227
			c-12.069,0-22.817,5.739-29.677,14.625c-6.86-8.886-17.608-14.625-29.676-14.625c-15.237,0-28.37,9.143-34.225,22.227H182.452
			c-5.855-13.084-18.988-22.227-34.224-22.227c-12.068,0-22.816,5.739-29.676,14.625c-6.86-8.886-17.608-14.625-29.676-14.625
			c-15.236,0-28.369,9.143-34.224,22.227H15.61v-6.244h28.098v-15.61H15.61v-6.244H496.39V357.112z"/>
	</g>
</g>
<g>
	<g>
		<rect x="82.211" y="387.288" width="13.529" height="15.61"/>
	</g>
</g>
<g>
	<g>
		<rect x="140.488" y="387.288" width="14.569" height="15.61"/>
	</g>
</g>
<g>
	<g>
		<rect x="415.219" y="387.288" width="14.569" height="15.61"/>
	</g>
</g>
<g>
	<g>
		<rect x="356.943" y="387.288" width="13.528" height="15.61"/>
	</g>
</g>
<g>
	<g>
		<rect x="244.553" y="357.109" width="22.894" height="15.61"/>
	</g>
</g>
<g>
	<g>
		<rect x="273.691" y="357.109" width="22.894" height="15.61"/>
	</g>
</g>
<g>
	<g>
		<rect x="215.415" y="357.109" width="21.854" height="15.61"/>
	</g>
</g>
</svg>