<?xml version="1.0" encoding="utf-8"?>

<!DOCTYPE svg PUBLIC "-//W3C//DTD SVG 1.1//EN" "http://www.w3.org/Graphics/SVG/1.1/DTD/svg11.dtd">
<!-- Uploaded to: SVG Repo, www.svgrepo.com, Generator: SVG Repo Mixer Tools -->
<svg height="800px" width="800px" version="1.1" id="_x32_" xmlns="http://www.w3.org/2000/svg" xmlns:xlink="http://www.w3.org/1999/xlink" 
	 viewBox="0 0 512 512"  xml:space="preserve">
<defs>
  <linearGradient id="icon-grad" x1="0%" y1="0%" x2="100%" y2="100%">
    <stop offset="0%" stop-color="#38bdf8" />
    <stop offset="100%" stop-color="#1e3a8a" />
  </linearGradient>
</defs>

<style type="text/css">
	.st0{fill:url(#icon-grad);}
</style>
<g>
	<path class="st0" d="M360.721,195.086v-29.711c0-57.833-46.888-104.72-104.721-104.72c-57.851,0-104.722,46.888-104.722,104.72
		v29.711c0,57.834,46.871,104.722,104.722,104.722C313.833,299.808,360.721,252.92,360.721,195.086z"/>
	<path class="st0" d="M105.944,236.627c13.98,0,25.337-11.356,25.337-25.337v-63.35c0-9.856-5.696-18.293-13.927-22.488
		c6.856-23.793,19.552-45.112,36.621-62.191C180.151,37.094,216.183,20.935,256,20.935c39.799,0,75.831,16.159,102.007,42.326
		c17.302,17.32,30.104,39.005,36.871,63.19c-7.214,4.464-12.07,12.382-12.07,21.489v63.35c0,10.035,5.892,18.642,14.374,22.739
		c-3.392,12.704-8.231,24.756-13.999,35.363c-5.642,10.401-12.16,19.382-18.891,26.256c-5.035-3.794-11.231-6.115-17.998-6.115
		c-16.624,0-30.104,13.472-30.104,30.095s13.481,30.104,30.104,30.104c16.623,0,30.103-13.48,30.103-30.104
		c0-3.705-0.768-7.214-1.999-10.499l1.553-1.438c16.677-17.034,30.604-42.879,37.853-71.751c11.249-2.58,19.677-12.615,19.677-24.65
		v-63.35c0-11.285-7.446-20.748-17.66-24.015C397.396,52.753,332.849,0.018,256,0C178.865,0.018,114.158,53.119,95.981,124.656
		c-9.035,3.875-15.373,12.838-15.373,23.284v63.35C80.608,225.271,91.963,236.627,105.944,236.627z"/>
	<path class="st0" d="M375.309,352.025L256,459.657L136.674,352.025C80.876,385.683,51.915,444.453,51.915,512H256h204.085
		C460.085,444.462,431.125,385.683,375.309,352.025z"/>
	<polygon class="st0" points="229.824,396.842 256,417.777 282.176,396.842 282.176,339.259 229.824,339.259 	"/>
</g>
</svg>